<svg xmlns="http://www.w3.org/2000/svg" width="33" height="33" fill="none" viewBox="0 0 33 33">
  <path fill="#fff" fill-rule="evenodd" d="M16.5 33C25.613 33 33 25.613 33 16.5S25.613 0 16.5 0 0 7.387 0 16.5 7.387 33 16.5 33Zm-.128-3.326c7.347 0 13.302-5.955 13.302-13.302 0-7.347-5.955-13.302-13.302-13.302C9.025 3.07 3.07 9.025 3.07 16.372c0 7.347 5.955 13.302 13.302 13.302Z" clip-rule="evenodd"/>
  <path fill="#fff" d="M13.367 31.721V20.198h-3.134v-4.15h3.134v-3.543c0-2.785 1.852-5.342 6.118-5.342 1.728 0 3.005.161 3.005.161l-.1 3.874s-1.303-.012-2.725-.012c-1.538 0-1.785.69-1.785 1.833v3.03h4.632l-.202 4.149h-4.43V31.72h-4.513Z"/>
</svg>
