<svg xmlns="http://www.w3.org/2000/svg" width="78" height="579" fill="none" viewBox="0 0 78 579">
  <path stroke="#7D7F83" stroke-linecap="round" stroke-linejoin="round" stroke-width="5" d="M75.75 3a35.899 35.899 0 00-25.366 10.492 35.796 35.796 0 00-10.507 25.33c0 9.5 3.78 18.612 10.507 25.33a35.898 35.898 0 0025.365 10.491A35.912 35.912 0 0050.374 85.14a35.81 35.81 0 00-10.51 25.34c0 9.504 3.78 18.619 10.51 25.339a35.91 35.91 0 0025.375 10.496 35.898 35.898 0 00-25.365 10.492 35.798 35.798 0 00-10.507 25.33c0 9.501 3.78 18.612 10.507 25.33a35.898 35.898 0 0025.365 10.492 35.898 35.898 0 00-25.365 10.492 35.795 35.795 0 00-10.507 25.329c0 9.501 3.78 18.612 10.507 25.33a35.898 35.898 0 0025.365 10.492 35.898 35.898 0 00-25.365 10.492 35.796 35.796 0 00-10.507 25.33c0 9.5 3.78 18.612 10.507 25.33a35.898 35.898 0 0025.365 10.492 35.898 35.898 0 00-25.365 10.492 35.794 35.794 0 00-10.507 25.329c0 9.501 3.78 18.612 10.507 25.33a35.898 35.898 0 0025.365 10.492 35.898 35.898 0 00-25.365 10.492 35.796 35.796 0 00-10.507 25.33c0 9.5 3.78 18.612 10.507 25.33a35.902 35.902 0 0025.365 10.492m0-490.461a24.777 24.777 0 00-17.507 7.241 24.706 24.706 0 00-7.251 17.482 24.706 24.706 0 007.251 17.483 24.777 24.777 0 0017.508 7.24m0-37.854a13.213 13.213 0 00-8.946 4.064 13.176 13.176 0 000 18.217 13.213 13.213 0 008.945 4.064m0 33.706a24.777 24.777 0 00-17.507 7.242 24.707 24.707 0 00-7.251 17.482 24.706 24.706 0 007.251 17.482 24.779 24.779 0 0017.508 7.241m0-37.854a13.214 13.214 0 00-8.946 4.063 13.178 13.178 0 00-3.657 9.109c0 3.393 1.31 6.655 3.657 9.109a13.215 13.215 0 008.945 4.063m0 33.707a24.775 24.775 0 00-17.507 7.241 24.705 24.705 0 00-7.251 17.482 24.705 24.705 0 007.251 17.482 24.776 24.776 0 0017.508 7.242m0-37.855a13.211 13.211 0 00-8.946 4.064 13.174 13.174 0 000 18.217 13.21 13.21 0 008.945 4.063m0 33.707a24.779 24.779 0 00-17.507 7.241 24.707 24.707 0 00-7.251 17.483 24.706 24.706 0 007.251 17.482 24.779 24.779 0 0017.508 7.241m0-37.854a13.21 13.21 0 00-8.946 4.063 13.176 13.176 0 000 18.217 13.211 13.211 0 008.945 4.064m0 33.734a24.778 24.778 0 00-17.506 7.241 24.706 24.706 0 00-7.252 17.482 24.707 24.707 0 007.252 17.483 24.778 24.778 0 0017.506 7.241m0-37.937a13.211 13.211 0 00-8.945 4.064 13.174 13.174 0 000 18.217 13.21 13.21 0 008.945 4.063m0 33.789a24.775 24.775 0 00-17.506 7.242 24.704 24.704 0 00-7.252 17.482 24.704 24.704 0 007.252 17.482 24.774 24.774 0 0017.506 7.241m0-37.882c-3.502 0-6.86 1.39-9.337 3.863a13.173 13.173 0 000 18.647 13.213 13.213 0 009.337 3.862m0 33.789a24.778 24.778 0 00-17.506 7.241 24.708 24.708 0 00-7.252 17.483 24.706 24.706 0 007.252 17.482 24.778 24.778 0 0017.506 7.241m0-37.964c-3.502 0-6.86 1.389-9.337 3.862a13.177 13.177 0 00-3.867 9.324c0 3.497 1.391 6.851 3.867 9.324a13.218 13.218 0 009.337 3.862m0 22.581a35.901 35.901 0 00-25.365 10.491 35.798 35.798 0 00-10.507 25.33c0 9.501 3.78 18.612 10.507 25.33A35.898 35.898 0 0075.75 576.12m0-60.518a24.775 24.775 0 00-17.508 7.242 24.704 24.704 0 00-7.251 17.482 24.706 24.706 0 007.252 17.482 24.774 24.774 0 0017.507 7.241m0-37.854a13.215 13.215 0 00-8.946 4.063 13.178 13.178 0 00-3.657 9.109c0 3.393 1.31 6.655 3.657 9.109a13.215 13.215 0 008.946 4.063M38.886 38.822a35.899 35.899 0 00-25.365 10.492 35.796 35.796 0 00-10.507 25.33c0 9.5 3.78 18.611 10.507 25.33a35.899 35.899 0 0025.365 10.491 35.914 35.914 0 00-25.375 10.496A35.81 35.81 0 003 146.301c0 9.504 3.78 18.619 10.51 25.339a35.91 35.91 0 0025.377 10.496 35.898 35.898 0 00-25.366 10.492 35.796 35.796 0 00-10.507 25.33c0 9.5 3.78 18.612 10.507 25.33a35.902 35.902 0 0025.365 10.491 35.902 35.902 0 00-25.365 10.492 35.798 35.798 0 00-10.507 25.33c0 9.501 3.78 18.612 10.507 25.33a35.898 35.898 0 0025.365 10.492 35.898 35.898 0 00-25.365 10.492 35.796 35.796 0 00-10.507 25.33c0 9.5 3.78 18.612 10.507 25.329a35.898 35.898 0 0025.365 10.492 35.898 35.898 0 00-25.365 10.492 35.798 35.798 0 00-10.507 25.33c0 9.501 3.78 18.612 10.507 25.33a35.898 35.898 0 0025.365 10.492m0-418.818a24.777 24.777 0 00-17.507 7.242 24.706 24.706 0 00-7.251 17.482 24.706 24.706 0 007.251 17.482 24.777 24.777 0 0017.507 7.242m0-37.855a13.213 13.213 0 00-8.945 4.064 13.176 13.176 0 000 18.217 13.213 13.213 0 008.945 4.063m0 33.707a24.778 24.778 0 00-17.507 7.241 24.706 24.706 0 00-7.251 17.482 24.708 24.708 0 007.251 17.483 24.778 24.778 0 0017.507 7.241m0-37.855a13.216 13.216 0 00-8.945 4.064 13.176 13.176 0 000 18.217 13.211 13.211 0 008.945 4.064m0 33.706a24.775 24.775 0 00-17.507 7.242 24.704 24.704 0 00-7.251 17.482 24.706 24.706 0 007.251 17.482 24.774 24.774 0 0017.507 7.241m0-37.854a13.214 13.214 0 00-8.945 4.063 13.178 13.178 0 00-3.657 9.109c0 3.393 1.31 6.655 3.657 9.109a13.214 13.214 0 008.945 4.063m0 33.707a24.774 24.774 0 00-17.507 7.241 24.706 24.706 0 00-7.251 17.482 24.704 24.704 0 007.251 17.482 24.775 24.775 0 0017.507 7.242m0-37.8a13.21 13.21 0 00-8.945 4.064 13.174 13.174 0 000 18.217 13.215 13.215 0 008.945 4.064m0 33.679a24.774 24.774 0 00-17.507 7.241 24.706 24.706 0 00-7.251 17.482 24.704 24.704 0 007.251 17.482 24.775 24.775 0 0017.507 7.242m0-37.882a13.214 13.214 0 00-8.945 4.063 13.178 13.178 0 00-3.657 9.109c0 3.393 1.31 6.655 3.657 9.109a13.214 13.214 0 008.945 4.063m0 33.734a24.778 24.778 0 00-17.507 7.241 24.707 24.707 0 00-7.251 17.483 24.706 24.706 0 007.251 17.482 24.778 24.778 0 0017.507 7.241m0-37.882c-3.502 0-6.86 1.389-9.337 3.862a13.177 13.177 0 000 18.648 13.213 13.213 0 009.337 3.862m0 22.691a35.898 35.898 0 00-25.365 10.492 35.795 35.795 0 00-10.507 25.329c0 9.501 3.78 18.612 10.507 25.33a35.898 35.898 0 0025.365 10.492m0-60.655a24.778 24.778 0 00-17.507 7.241 24.707 24.707 0 00-7.251 17.483 24.706 24.706 0 007.251 17.482 24.779 24.779 0 0017.507 7.241m0-37.854c-3.502 0-6.86 1.389-9.337 3.862a13.174 13.174 0 000 18.647 13.213 13.213 0 009.337 3.862"/>
</svg>
