<svg xmlns="http://www.w3.org/2000/svg" width="528" height="79" fill="none" viewBox="0 0 528 79">
  <path stroke="#7D7F83" stroke-linecap="round" stroke-linejoin="round" stroke-width="5" d="M525.12 75.75a35.898 35.898 0 00-10.492-25.366 35.796 35.796 0 00-25.33-10.507c-9.5 0-18.612 3.78-25.329 10.507a35.898 35.898 0 00-10.492 25.365 35.914 35.914 0 00-10.496-25.375 35.812 35.812 0 00-25.34-10.51 35.808 35.808 0 00-25.339 10.51 35.91 35.91 0 00-10.496 25.375 35.898 35.898 0 00-10.492-25.365 35.796 35.796 0 00-25.33-10.507c-9.5 0-18.612 3.78-25.33 10.507a35.898 35.898 0 00-10.492 25.365 35.898 35.898 0 00-10.492-25.365 35.793 35.793 0 00-25.329-10.507 35.796 35.796 0 00-25.33 10.507 35.898 35.898 0 00-10.492 25.365 35.898 35.898 0 00-10.492-25.365 35.796 35.796 0 00-25.33-10.507c-9.5 0-18.612 3.78-25.33 10.507a35.902 35.902 0 00-10.492 25.365 35.901 35.901 0 00-10.491-25.365 35.797 35.797 0 00-25.33-10.507 35.796 35.796 0 00-25.33 10.507 35.898 35.898 0 00-10.492 25.365A35.898 35.898 0 0084.74 50.385a35.796 35.796 0 00-25.33-10.507c-9.5 0-18.611 3.78-25.33 10.507A35.898 35.898 0 0023.59 75.749m490.46 0a24.775 24.775 0 00-7.241-17.507 24.705 24.705 0 00-17.482-7.251 24.705 24.705 0 00-17.482 7.251 24.776 24.776 0 00-7.242 17.508m37.855 0a13.211 13.211 0 00-4.064-8.946 13.174 13.174 0 00-18.217 0 13.216 13.216 0 00-4.064 8.945m-33.706 0a24.779 24.779 0 00-7.241-17.507 24.707 24.707 0 00-17.483-7.251 24.706 24.706 0 00-17.482 7.251 24.779 24.779 0 00-7.241 17.508m37.854 0a13.21 13.21 0 00-4.063-8.946 13.176 13.176 0 00-18.217 0 13.211 13.211 0 00-4.064 8.945m-33.706 0a24.776 24.776 0 00-7.242-17.507 24.705 24.705 0 00-17.482-7.251 24.705 24.705 0 00-17.482 7.251 24.776 24.776 0 00-7.242 17.508m37.855 0a13.211 13.211 0 00-4.064-8.946 13.174 13.174 0 00-18.217 0 13.21 13.21 0 00-4.063 8.945m-33.707 0a24.779 24.779 0 00-7.241-17.507 24.707 24.707 0 00-17.482-7.251 24.707 24.707 0 00-17.483 7.251 24.779 24.779 0 00-7.241 17.508m37.855 0a13.215 13.215 0 00-4.064-8.946 13.176 13.176 0 00-18.217 0 13.211 13.211 0 00-4.064 8.945m-33.734 0a24.779 24.779 0 00-7.241-17.507 24.706 24.706 0 00-17.482-7.251 24.708 24.708 0 00-17.483 7.251 24.779 24.779 0 00-7.241 17.508m37.937 0a13.211 13.211 0 00-4.064-8.946 13.174 13.174 0 00-18.217 0 13.214 13.214 0 00-4.063 8.945m-33.789 0a24.776 24.776 0 00-7.242-17.507 24.704 24.704 0 00-17.482-7.251 24.706 24.706 0 00-17.482 7.251 24.775 24.775 0 00-7.241 17.508m37.882 0c0-3.503-1.39-6.861-3.862-9.338a13.177 13.177 0 00-18.648 0 13.213 13.213 0 00-3.862 9.337m-33.789 0a24.777 24.777 0 00-7.241-17.507 24.706 24.706 0 00-17.483-7.251 24.706 24.706 0 00-17.482 7.251 24.777 24.777 0 00-7.241 17.508m37.964 0c0-3.503-1.389-6.861-3.862-9.338a13.176 13.176 0 00-18.647 0 13.214 13.214 0 00-3.863 9.337m-22.58 0a35.898 35.898 0 00-10.492-25.365 35.796 35.796 0 00-25.33-10.507c-9.5 0-18.612 3.78-25.33 10.507A35.898 35.898 0 00-48 75.749m60.518 0a24.777 24.777 0 00-7.241-17.507 24.706 24.706 0 00-17.483-7.251 24.706 24.706 0 00-17.482 7.251 24.777 24.777 0 00-7.241 17.508m37.854 0a13.213 13.213 0 00-4.063-8.946 13.176 13.176 0 00-18.217 0 13.213 13.213 0 00-4.064 8.945m514.717-36.862a35.898 35.898 0 00-10.492-25.366 35.794 35.794 0 00-25.329-10.507 35.796 35.796 0 00-25.33 10.507 35.898 35.898 0 00-10.492 25.365 35.914 35.914 0 00-10.496-25.375A35.808 35.808 0 00381.82 3c-9.505 0-18.62 3.78-25.34 10.51a35.914 35.914 0 00-10.496 25.377 35.898 35.898 0 00-10.492-25.366 35.796 35.796 0 00-25.33-10.507c-9.5 0-18.612 3.78-25.329 10.507a35.898 35.898 0 00-10.492 25.365 35.898 35.898 0 00-10.492-25.365 35.798 35.798 0 00-25.33-10.507 35.796 35.796 0 00-25.33 10.507 35.898 35.898 0 00-10.492 25.365 35.898 35.898 0 00-10.492-25.365 35.796 35.796 0 00-25.33-10.507c-9.5 0-18.611 3.78-25.329 10.507a35.898 35.898 0 00-10.492 25.365 35.898 35.898 0 00-10.492-25.365 35.796 35.796 0 00-25.33-10.507c-9.5 0-18.612 3.78-25.33 10.507A35.898 35.898 0 0059.41 38.886m418.818 0a24.775 24.775 0 00-7.242-17.507 24.704 24.704 0 00-17.482-7.251 24.706 24.706 0 00-17.482 7.251 24.774 24.774 0 00-7.241 17.507m37.854 0a13.215 13.215 0 00-4.063-8.945 13.178 13.178 0 00-9.109-3.657c-3.393 0-6.655 1.31-9.109 3.657a13.215 13.215 0 00-4.063 8.945m-33.707 0a24.774 24.774 0 00-7.241-17.507 24.706 24.706 0 00-17.482-7.251 24.704 24.704 0 00-17.482 7.251 24.775 24.775 0 00-7.242 17.507m37.855 0a13.216 13.216 0 00-4.064-8.945 13.176 13.176 0 00-18.217 0 13.216 13.216 0 00-4.064 8.945m-33.706 0a24.775 24.775 0 00-7.242-17.507 24.704 24.704 0 00-17.482-7.251 24.706 24.706 0 00-17.482 7.251 24.778 24.778 0 00-7.241 17.507m37.854 0a13.215 13.215 0 00-4.063-8.945 13.178 13.178 0 00-9.109-3.657c-3.393 0-6.655 1.31-9.109 3.657a13.215 13.215 0 00-4.063 8.945m-33.707 0a24.775 24.775 0 00-7.241-17.507 24.706 24.706 0 00-17.482-7.251 24.705 24.705 0 00-17.482 7.251 24.776 24.776 0 00-7.242 17.507m37.8 0a13.211 13.211 0 00-4.064-8.945 13.174 13.174 0 00-18.217 0 13.21 13.21 0 00-4.063 8.945m-33.679 0a24.776 24.776 0 00-7.242-17.507 24.705 24.705 0 00-17.482-7.251 24.705 24.705 0 00-17.482 7.251 24.776 24.776 0 00-7.242 17.507m37.882 0a13.21 13.21 0 00-4.063-8.945 13.176 13.176 0 00-18.217 0 13.211 13.211 0 00-4.064 8.945m-33.734 0a24.779 24.779 0 00-7.241-17.507 24.707 24.707 0 00-17.483-7.251 24.706 24.706 0 00-17.482 7.251 24.777 24.777 0 00-7.241 17.507m37.882 0c0-3.502-1.389-6.86-3.862-9.337a13.177 13.177 0 00-18.648 0 13.214 13.214 0 00-3.862 9.337m-22.69 0a35.899 35.899 0 00-10.492-25.365 35.796 35.796 0 00-25.33-10.507c-9.5 0-18.612 3.78-25.33 10.507a35.898 35.898 0 00-10.492 25.365m60.655 0a24.777 24.777 0 00-7.241-17.507 24.706 24.706 0 00-17.482-7.251A24.706 24.706 0 006.16 21.379 24.777 24.777 0 00-1.08 38.886m37.855 0c0-3.502-1.39-6.86-3.862-9.337a13.177 13.177 0 00-18.648 0 13.214 13.214 0 00-3.862 9.337"/>
</svg>
