<svg xmlns="http://www.w3.org/2000/svg" width="33" height="33" fill="none" viewBox="0 0 33 33">
  <path fill="#fff" fill-rule="evenodd" d="M9.477.097C11.197.017 11.745 0 16.125 0s4.928.02 6.646.097 2.891.352 3.917.749a7.932 7.932 0 0 1 2.856 1.862 7.876 7.876 0 0 1 1.859 2.854c.398 1.026.671 2.199.75 3.914.08 1.722.097 2.27.097 6.649 0 4.38-.02 4.928-.097 6.648-.077 1.715-.352 2.888-.75 3.914a7.909 7.909 0 0 1-1.86 2.857 7.906 7.906 0 0 1-2.855 1.859c-1.026.398-2.198.671-3.914.75-1.72.08-2.269.097-6.649.097s-4.928-.02-6.648-.097c-1.715-.077-2.888-.352-3.914-.75a7.911 7.911 0 0 1-2.857-1.86 7.903 7.903 0 0 1-1.86-2.855c-.397-1.026-.67-2.198-.75-3.914C.019 21.052 0 20.504 0 16.125c0-4.38.02-4.928.097-6.646s.352-2.891.749-3.917a7.91 7.91 0 0 1 1.862-2.856A7.904 7.904 0 0 1 5.562.846C6.588.449 7.76.176 9.476.096h.001Zm13.164 2.902c-1.7-.077-2.21-.094-6.516-.094-4.305 0-4.816.017-6.516.094-1.573.072-2.426.334-2.995.556-.752.293-1.29.64-1.854 1.205a5.002 5.002 0 0 0-1.205 1.854c-.222.569-.484 1.422-.556 2.995-.077 1.7-.094 2.21-.094 6.516 0 4.305.017 4.816.094 6.516.072 1.573.334 2.426.556 2.995.258.7.67 1.334 1.205 1.854.52.535 1.155.947 1.854 1.205.569.221 1.422.484 2.995.556 1.7.077 2.21.094 6.516.094 4.307 0 4.816-.017 6.516-.094 1.573-.072 2.426-.335 2.995-.556a5.008 5.008 0 0 0 1.854-1.205 5.005 5.005 0 0 0 1.205-1.854c.221-.569.484-1.422.556-2.995.077-1.7.094-2.21.094-6.516 0-4.305-.017-4.816-.094-6.516-.072-1.573-.335-2.426-.556-2.995A5.007 5.007 0 0 0 27.49 4.76a5.003 5.003 0 0 0-1.854-1.205c-.569-.222-1.422-.484-2.995-.556Zm-8.576 18.097a5.378 5.378 0 0 0 5.864-8.775 5.38 5.38 0 1 0-5.864 8.775Zm-3.8-10.832a8.288 8.288 0 1 1 11.72 11.72 8.288 8.288 0 0 1-11.72-11.72ZM26.25 9.071a1.96 1.96 0 1 0-2.69-2.852 1.96 1.96 0 0 0 2.69 2.852Z" clip-rule="evenodd"/>
</svg>
