<svg xmlns="http://www.w3.org/2000/svg" width="1035" height="71" fill="none" viewBox="0 0 1035 71">
  <path fill="#fff" d="M56.088 17.334c0 1.715-7.392 2.876-22.176 3.482a52.682 52.682 0 01-5.715 7.645c-3.049 3.431-5.513 5.121-7.392 5.071 4.47-5.5 7.493-9.865 9.068-13.095 1.778-3.734 3.125-8.806 4.04-15.214l.228-.606c3.353.05 5.64 1.01 6.858 2.877-.559 1.362-1.55 3.33-2.972 5.904-1.371 2.523-2.337 4.44-2.896 5.752 1.474-.201 4.319-.984 8.536-2.346 3.658-1.16 6.452-1.741 8.382-1.741 2.693 0 4.04.757 4.04 2.27zM45.724 30.58c0 .656-.305 1.413-.914 2.27-.61.808-1.22 1.212-1.83 1.212-.304 0-.609-.126-.914-.379-.559-.454-1.168-1.11-1.829-1.968-.965-1.261-1.524-1.968-1.676-2.119a88.823 88.823 0 00-3.277-3.633c1.372 0 3.353.48 5.944 1.438 2.997 1.06 4.496 2.12 4.496 3.179zm13.87 9.84c-.356.555-1.042 1.211-2.058 1.968-1.016.757-1.676 1.438-1.981 2.044l-4.039 7.947c2.286-.05 3.43.58 3.43 1.893-.712.807-4.878 1.615-12.499 2.422-5.588.555-10.313.908-14.174 1.06.101 1.009-.203 1.514-.915 1.514-.406 0-.813-.404-1.219-1.212-.406-.807-.66-1.463-.762-1.967l-1.22-8.478c-.507-3.18-1.219-5.955-2.133-8.326.406.05 1.295.277 2.667.68 1.169.405 2.058.606 2.667.606 2.744 0 6.757-.807 12.041-2.422 5.334-1.614 9.373-2.422 12.117-2.422 1.016 0 2.464.58 4.344 1.741 1.676 1.01 2.921 1.993 3.734 2.952zM17.909 8.629c-1.118 6.055-1.677 13.145-1.677 21.27 0 3.28.127 8.225.381 14.835.254 6.56.381 11.506.381 14.836 0 3.28-.66 5.198-1.981 5.753-2.083-1.11-3.125-3.18-3.125-6.207 0-.908.229-2.22.686-3.936.457-1.665.686-2.927.686-3.785V12.188c0-1.01-.33-2.12-.99-3.33a99.21 99.21 0 01-1.906-3.029c3.302.101 5.817 1.035 7.545 2.801zM6.325 23.313c0 1.514-.152 3.76-.457 6.737-.305 2.977-.457 5.223-.457 6.737 0 8.175-.839 12.262-2.515 12.262-1.22 0-1.83-1.917-1.83-5.753 0-2.17.204-5.374.61-9.613.407-4.289.61-7.518.61-9.688 0-.454-.305-1.363-.914-2.725C.914 20.36.457 19.428 0 18.47c4.217 0 6.325 1.614 6.325 4.843zm44.581 18.318c0-1.564-.533-2.346-1.6-2.346-1.423 0-3.175.126-5.258.378-3.404.505-5.182.757-5.335.757 1.524.202 2.286 1.54 2.286 4.012 0 2.876-.355 6.156-1.067 9.84 1.88-.303 4.7-.883 8.46-1.741a754.903 754.903 0 001.524-5.374c.66-2.271.99-4.113.99-5.526zM38.18 54.726l-1.143-13.625-9.45 1.06c0 .757.076 1.716.229 2.876.203 1.464.304 2.448.304 2.952.102 1.413.153 4.113.153 8.1 2.184-.354 5.487-.808 9.907-1.363zM127.733 61.236c-4.471 1.413-10.923 2.119-19.356 2.119-.61 0-2.592-1.74-5.945-5.223-2.083-2.17-4.14-4.34-6.172-6.51-5.741 6.41-13.565 9.614-23.472 9.614 8.23-2.07 15.368-6.056 21.414-11.96-2.591-2.674-4.496-4.592-5.715-5.753-2.236-2.018-4.395-3.633-6.478-4.844h5.182c1.575 1.766 4.42 4.517 8.535 8.25 2.286-5.046 3.607-9.183 3.963-12.413l-1.067-.984c-1.88 0-4.496.227-7.85.681-3.657.505-6.248.782-7.772.833-5.284 10.092-13.718 17.662-25.301 22.708l-.915-.152c7.164-4.592 13.006-9.89 17.528-15.895 4.014-5.35 7.748-12.313 11.202-20.891-5.13.706-7.849 1.06-8.154 1.06-3.099 0-5.436-.909-7.01-2.726l3.962.076c1.88.05 5.919-.404 12.117-1.363.61-2.27.914-4.768.914-7.493 0-2.321-.254-5.198-.762-8.63 4.319.051 7.215 1.212 8.688 3.483-1.22 2.624-2.083 4.541-2.591 5.753-.915 2.17-1.575 4.163-1.981 5.98 1.219-.203 3.835-.91 7.849-2.12 3.201-1.01 5.842-1.514 7.925-1.514 2.896 0 5.03.58 6.402 1.74-1.677 1.414-5.284 2.524-10.822 3.331-4.013.455-8.001.883-11.964 1.287-.762 2.07-2.693 6.46-5.792 13.17 1.677-.15 4.547-.958 8.611-2.421 3.76-1.363 6.478-2.044 8.155-2.044 1.016 0 2.133.227 3.353.681 1.321.606 2.159 1.312 2.515 2.12-2.998 7.821-6.097 13.977-9.298 18.469 3.709 3.027 8.485 5.5 14.327 7.417 2.49.858 7.748 2.246 15.775 4.164zM183.254 25.206c0 .404-.533 1.287-1.6 2.649-1.067 1.363-1.677 2.397-1.829 3.103-.305 1.312-.686 5.173-1.143 11.581-.407 6.157-1.042 10.825-1.905 14.004-1.321 4.794-3.354 7.72-6.097 8.78l-.838-.757c-.661-2.321-1.702-5.753-3.125-10.294-4.267 0-13.387.807-27.358 2.422.051 2.574-.356 4.264-1.219 5.072-1.271-.606-2.795-6.308-4.573-17.107-2.032-12.111-3.353-18.923-3.963-20.437l1.22-.227c.762 0 1.879.302 3.353.908 1.473.606 2.184.908 2.134.908 3.658 0 8.738-.63 15.241-1.892v-5.828c.051-6.61-1.092-11.758-3.429-15.442 4.877.454 8.154 1.716 9.83 3.785-1.575 7.821-2.362 13.448-2.362 16.88 1.372-.202 4.471-.884 9.297-2.044 3.861-.96 7.011-1.438 9.45-1.438 1.168 0 2.896.63 5.182 1.892 2.489 1.362 3.734 2.523 3.734 3.482zm-8.84-.227l-1.448-1.287c-2.388 0-8.078.58-17.07 1.74l-.305 11.733c.813 0 2.007-.252 3.582-.757 1.625-.555 2.87-.832 3.734-.832.66 0 1.321.176 1.981.53.661.353.991.832.991 1.438 0 .959-1.499 1.665-4.496 2.12-.559.1-2.49.277-5.792.529v11.808c1.575-.151 3.887-.58 6.935-1.287 2.896.606 4.826 1.59 5.792 2.952 1.219.303 2.184.505 2.895.606 1.575-4.088 2.541-8.907 2.896-14.457.153-2.12.229-7.065.229-14.836h.076zm-21.643 27.703c-1.219-1.715-1.549-5.752-.99-12.11l-5.564.68c-.711.051-1.473-.176-2.286-.68-.813-.505-1.422-1.06-1.829-1.666 2.185-.05 5.487-.378 9.907-.984 0-2.624-.127-6.61-.381-11.96-3.455.758-8.51 1.288-15.165 1.59.457 2.927.94 7.368 1.448 13.322.508 5.955.991 10.42 1.448 13.398l13.412-1.59zM251.346 61.236c-4.471 1.413-10.923 2.119-19.356 2.119-.61 0-2.591-1.74-5.944-5.223a724.925 724.925 0 01-6.173-6.51c-5.741 6.41-13.565 9.614-23.472 9.614 8.23-2.07 15.368-6.056 21.414-11.96-2.591-2.674-4.496-4.592-5.715-5.753-2.236-2.018-4.395-3.633-6.478-4.844h5.182c1.575 1.766 4.42 4.517 8.535 8.25 2.287-5.046 3.607-9.183 3.963-12.413l-1.067-.984c-1.88 0-4.496.227-7.849.681-3.658.505-6.249.782-7.773.833-5.284 10.092-13.717 17.662-25.301 22.708l-.914-.152c7.163-4.592 13.006-9.89 17.527-15.895 4.014-5.35 7.748-12.313 11.203-20.891-5.132.706-7.85 1.06-8.155 1.06-3.099 0-5.436-.909-7.011-2.726l3.963.076c1.88.05 5.919-.404 12.117-1.363.61-2.27.915-4.768.915-7.493 0-2.321-.254-5.198-.762-8.63 4.318.051 7.214 1.212 8.687 3.483-1.219 2.624-2.083 4.541-2.591 5.753-.914 2.17-1.575 4.163-1.981 5.98 1.219-.203 3.835-.91 7.849-2.12 3.201-1.01 5.843-1.514 7.926-1.514 2.895 0 5.029.58 6.401 1.74-1.677 1.414-5.284 2.524-10.821 3.331-4.014.455-8.002.883-11.965 1.287-.762 2.07-2.693 6.46-5.792 13.17 1.677-.15 4.547-.958 8.612-2.421 3.759-1.363 6.477-2.044 8.154-2.044 1.016 0 2.134.227 3.353.681 1.321.606 2.159 1.312 2.515 2.12-2.998 7.821-6.097 13.977-9.297 18.469 3.708 3.027 8.484 5.5 14.326 7.417 2.49.858 7.748 2.246 15.775 4.164zM339.027 11.96c-.458.706-3.252 1.463-8.383 2.27-4.471.656-7.595.984-9.374.984-3.251 0-4.978-.832-5.182-2.498 3.912-.353 7.037-.832 9.374-1.438.051 0 1.575-.429 4.572-1.287 2.134-.656 3.582-.984 4.344-.984.864 0 1.804.278 2.82.833 1.219.656 1.829 1.363 1.829 2.12zm10.059 35.954c0 2.12-.584 3.28-1.753 3.481-1.727-1.312-4.064-3.406-7.011-6.282-3.048-3.078-5.36-5.223-6.935-6.434 3.252.101 6.478.883 9.679 2.347 4.013 1.816 6.02 4.112 6.02 6.888zm-1.219-22.481c-.915.555-2.972.832-6.173.832s-7.57.43-13.108 1.287c.661 3.432 1.042 7.645 1.143 12.641v12.792c0 5.5-1.651 9.21-4.953 11.127-1.016-.858-2.439-2.523-4.268-4.996-1.625-2.27-3.099-3.885-4.42-4.844 1.779.404 4.471 1.06 8.078 1.968l.839-.379.381-.68V31.79c0-1.463-.407-2.599-1.22-3.406-1.93.303-3.835.605-5.715.908-2.388.404-4.293.606-5.716.606-1.626 0-3.15-1.136-4.572-3.407 3.658-.302 9.145-.857 16.461-1.665 1.066-.151 3.988-.731 8.763-1.74 3.607-.808 6.58-1.212 8.917-1.212 1.066 0 2.21.354 3.429 1.06 1.422.706 2.134 1.54 2.134 2.498zM310.83 10.446c-.406 1.312-1.854 3.28-4.344 5.904-2.235 2.32-3.404 4.39-3.505 6.206 3.302 5.45 4.953 9.563 4.953 12.338 0 1.212-.686 2.095-2.057 2.65-1.22-.656-2.947-1.867-5.182-3.634-2.236-1.766-3.989-2.977-5.259-3.633 2.744.353 5.513.782 8.307 1.287l.686-.757c-.102-.555-.661-2.12-1.677-4.693-.914-2.321-1.372-3.734-1.372-4.239 0-.706.585-2.346 1.753-4.92l2.286-5.147-.228-.605-.534-.303c-2.184.807-5.512 1.791-9.983 2.952 0 2.674.026 6.888.076 12.64.051 5.551.077 9.74.077 12.566 0 7.62-.077 13.296-.229 17.03-.152 3.432-.381 5.198-.686 5.299l-1.6.379c-1.524-.909-2.286-2.473-2.286-4.694 0-.857.177-2.144.533-3.86.406-1.716.61-3.002.61-3.86v-35.5c0-.505-.458-1.514-1.372-3.028l1.372-.227c.559 0 1.295.177 2.21.53.965.303 1.727.454 2.286.454 1.168 0 2.845-.555 5.03-1.665 3.048-1.615 4.699-2.473 4.953-2.574 2.388.757 4.115 1.792 5.182 3.104zm4.344 32.396c0 2.574-.61 4.744-1.829 6.51-1.473 2.12-2.998 3.179-4.573 3.179a2.436 2.436 0 01-1.524-.53 1.96 1.96 0 01-.609-1.438c0-.858.635-2.094 1.905-3.71 1.016-1.16 2.007-2.295 2.972-3.405.152-.252.559-1.312 1.219-3.18.61-1.665 1.016-2.497 1.22-2.497.812 0 1.219 1.69 1.219 5.071z"/>
  <path fill="#fff" d="M382.328 9.991c0 2.22-.457 3.331-1.372 3.331-.66 0-2.566-1.262-5.716-3.785a520.958 520.958 0 01-6.096-4.92c8.789 0 13.184 1.792 13.184 5.374zm32.388 49.882c-1.321.101-4.446.404-9.374.909-3.912.403-7.087.605-9.526.605-2.641 0-6.147-1.918-10.516-5.753-.305-.252-3.353-3.204-9.145-8.856-7.621 6.863-16.969 10.294-28.044 10.294l-.915-.075c7.519-2.17 12.27-3.684 14.251-4.542 5.233-2.17 9.246-5.02 12.041-8.553-2.693-3.684-4.801-6.283-6.325-7.797-2.642-2.674-5.437-4.44-8.383-5.298v-.378l3.886-.152c1.829-.1 4.039 1.312 6.63 4.239a331.07 331.07 0 015.106 6.737c2.693-5.753 4.039-10.446 4.039-14.08l-1.676-3.481c-1.575.1-4.293.53-8.154 1.287-3.404.656-6.097.984-8.078.984-3.201 0-5.538-.757-7.012-2.271.305-.101 1.88-.151 4.725-.151 4.065 0 9.933-1.212 17.604-3.634 7.672-2.472 13.54-3.709 17.604-3.709 3.963 0 6.503.555 7.621 1.665-.813.909-4.243 1.943-10.288 3.104l-11.736 2.12a188.16 188.16 0 012.591 1.967c.914.656 1.6 1.363 2.057 2.12-.203 3.33-2.286 8.957-6.248 16.88 5.232 4.793 11.024 8.401 17.375 10.823 4.572 1.716 11.202 3.381 19.89 4.996z"/>
  <path fill="#fff" d="M482.87 61.236c-4.471 1.413-10.923 2.119-19.357 2.119-.609 0-2.591-1.74-5.944-5.223-2.083-2.17-4.14-4.34-6.173-6.51-5.741 6.41-13.564 9.614-23.471 9.614 8.23-2.07 15.368-6.056 21.414-11.96-2.591-2.674-4.496-4.592-5.716-5.753-2.235-2.018-4.394-3.633-6.477-4.844h5.182c1.575 1.766 4.42 4.517 8.535 8.25 2.286-5.046 3.607-9.183 3.963-12.413l-1.067-.984c-1.88 0-4.496.227-7.85.681-3.658.505-6.249.782-7.773.833-5.283 10.092-13.717 17.662-25.3 22.708l-.915-.152c7.164-4.592 13.006-9.89 17.528-15.895 4.013-5.35 7.747-12.313 11.202-20.891-5.131.706-7.849 1.06-8.154 1.06-3.099 0-5.436-.909-7.011-2.726l3.963.076c1.879.05 5.918-.404 12.117-1.363.609-2.27.914-4.768.914-7.493 0-2.321-.254-5.198-.762-8.63 4.318.051 7.214 1.212 8.688 3.483-1.22 2.624-2.083 4.541-2.591 5.753-.915 2.17-1.575 4.163-1.982 5.98 1.22-.203 3.836-.91 7.85-2.12 3.2-1.01 5.842-1.514 7.925-1.514 2.896 0 5.03.58 6.401 1.74-1.676 1.414-5.283 2.524-10.821 3.331-4.014.455-8.002.883-11.964 1.287-.763 2.07-2.693 6.46-5.792 13.17 1.676-.15 4.547-.958 8.611-2.421 3.76-1.363 6.478-2.044 8.154-2.044 1.016 0 2.134.227 3.354.681 1.32.606 2.159 1.312 2.514 2.12-2.997 7.821-6.096 13.977-9.297 18.469 3.709 3.027 8.484 5.5 14.327 7.417 2.489.858 7.748 2.246 15.775 4.164zM522.54 8.629c-.407.555-2.566 2.17-6.478 4.844l-7.468 4.996v16.88l5.182-3.634c2.693-1.867 4.395-2.8 5.106-2.8-4.573 4.794-8.942 9.966-13.108 15.517-1.473-1.766-2.286-3.684-2.438-5.753l1.524-1.362c.355-2.17.533-4.517.533-7.04 0-2.977-.152-4.945-.457-5.904-.813-1.766-1.6-3.507-2.362-5.223.965-.201 2.387-.63 4.267-1.287 1.981-1.11 3.734-2.926 5.258-5.45 1.525-2.573 2.21-4.97 2.058-7.19 4.522.1 7.316 1.236 8.383 3.406zm-25.682 5.828c0 2.271-.584 3.406-1.753 3.406-.254 0-1.676-1.387-4.267-4.163-.458-.454-1.677-1.539-3.658-3.254h.305c6.198 0 9.297 1.337 9.297 4.011h.076zm53.421 42.237a1844.188 1844.188 0 00-9.831 4.693c-4.216 1.817-7.671 2.725-10.364 2.725-3.505 0-9.551-1.943-18.137-5.828-8.535-3.835-14.683-5.753-18.442-5.753-1.423 0-3.099.454-5.03 1.362-1.575.707-3.15 1.439-4.725 2.196-1.219-.808-2.21-1.943-2.972-3.407 1.524-2.069 4.115-3.103 7.773-3.103 1.118 0 2.337.1 3.658.303-.101-1.262-.635-3.129-1.6-5.602-.914-2.523-1.372-4.39-1.372-5.6 0-.051.432-1.136 1.296-3.256.914-2.17 1.422-3.456 1.524-3.86l-.991-1.135c-.457.1-1.702.53-3.734 1.286l-3.048 1.136c-1.524 0-2.896-.555-4.115-1.665 1.473-.404 3.327-1.136 5.563-2.196 2.642-1.261 4.445-2.094 5.41-2.497 2.795 1.009 4.751 2.27 5.868 3.784-.304 1.06-1.066 2.422-2.286 4.088-1.219 1.665-2.007 2.926-2.362 3.784a205.04 205.04 0 001.6 5.98c.61 2.372.915 4.44.915 6.207 4.775.757 13.514 2.876 26.215 6.358.305-14.785.457-21.825.457-21.118 0-7.52-.914-13.221-2.743-17.107 1.93-.252 3.785-.177 5.563.227 2.083-1.16 5.283-2.775 9.602-4.844 2.743.555 4.902 1.766 6.477 3.633-.914 4.037-2.108 8.2-3.581 12.49-2.236 6.56-4.141 9.84-5.716 9.84-1.168-1.968-3.099-4.719-5.792-8.251l6.326.757c.914-.858 1.651-2.65 2.21-5.374.406-2.17.609-4.189.609-6.056l-.99-3.027c-2.033.353-5.005 1.11-8.917 2.27V49.73c0 3.936-.711 6.384-2.133 7.343 2.641.403 5.131.605 7.468.605 2.286 0 5.69-.177 10.212-.53 4.521-.303 7.9-.454 10.135-.454zM644.758 17.334c0 1.715-7.392 2.876-22.176 3.482a52.707 52.707 0 01-5.716 7.645c-3.048 3.431-5.512 5.121-7.392 5.071 4.471-5.5 7.494-9.865 9.069-13.095 1.778-3.734 3.124-8.806 4.039-15.214l.228-.606c3.354.05 5.64 1.01 6.859 2.877-.559 1.362-1.549 3.33-2.972 5.904-1.372 2.523-2.337 4.44-2.896 5.752 1.473-.201 4.318-.984 8.535-2.346 3.658-1.16 6.452-1.741 8.383-1.741 2.693 0 4.039.757 4.039 2.27zM634.394 30.58c0 .656-.305 1.413-.915 2.27-.609.808-1.219 1.212-1.829 1.212-.304 0-.609-.126-.914-.379-.559-.454-1.169-1.11-1.829-1.968-.965-1.261-1.524-1.968-1.677-2.119a87.804 87.804 0 00-3.277-3.633c1.372 0 3.354.48 5.945 1.438 2.997 1.06 4.496 2.12 4.496 3.179zm13.87 9.84c-.356.555-1.042 1.211-2.058 1.968-1.016.757-1.677 1.438-1.981 2.044l-4.039 7.947c2.286-.05 3.429.58 3.429 1.893-.711.807-4.877 1.615-12.498 2.422-5.589.555-10.313.908-14.175 1.06.102 1.009-.203 1.514-.914 1.514-.406 0-.813-.404-1.219-1.212-.407-.807-.661-1.463-.762-1.967l-1.22-8.478c-.508-3.18-1.219-5.955-2.134-8.326.407.05 1.296.277 2.668.68 1.168.405 2.057.606 2.667.606 2.743 0 6.757-.807 12.041-2.422 5.334-1.614 9.373-2.422 12.117-2.422 1.016 0 2.464.58 4.343 1.741 1.677 1.01 2.922 1.993 3.735 2.952zM606.578 8.629c-1.117 6.055-1.676 13.145-1.676 21.27 0 3.28.127 8.225.381 14.835.254 6.56.381 11.506.381 14.836 0 3.28-.661 5.198-1.982 5.753-2.083-1.11-3.124-3.18-3.124-6.207 0-.908.229-2.22.686-3.936.457-1.665.686-2.927.686-3.785V12.188c0-1.01-.331-2.12-.991-3.33a98.817 98.817 0 01-1.905-3.029c3.302.101 5.817 1.035 7.544 2.801zm-11.583 14.684c0 1.514-.153 3.76-.457 6.737-.305 2.977-.458 5.223-.458 6.737 0 8.175-.838 12.262-2.515 12.262-1.219 0-1.828-1.917-1.828-5.753 0-2.17.203-5.374.609-9.613.407-4.289.61-7.518.61-9.688 0-.454-.305-1.363-.915-2.725-.457-.909-.914-1.842-1.371-2.8 4.216 0 6.325 1.614 6.325 4.843zm44.581 18.318c0-1.564-.534-2.346-1.6-2.346-1.423 0-3.176.126-5.259.378-3.404.505-5.182.757-5.334.757 1.524.202 2.286 1.54 2.286 4.012 0 2.876-.356 6.156-1.067 9.84 1.88-.303 4.7-.883 8.459-1.741a754.942 754.942 0 001.524-5.374c.661-2.271.991-4.113.991-5.526zm-12.727 13.095l-1.143-13.625-9.449 1.06c0 .757.076 1.716.228 2.876.203 1.464.305 2.448.305 2.952.102 1.413.152 4.113.152 8.1 2.185-.354 5.487-.808 9.907-1.363zM709.925 58.586l-1.219.909-17.375-.227c-13.565-.202-25.936 1.413-37.113 4.844-.864-.252-1.931-.807-3.201-1.665-1.473-.96-2.515-1.565-3.124-1.817 4.115 0 9.043-.404 14.784-1.211 4.928-.807 9.856-1.59 14.784-2.346V44.431l-4.115.757c-1.626.303-2.972.454-4.039.454-2.388 0-4.319-.959-5.792-2.877 4.928 0 9.577-.403 13.946-1.21V28.687c-5.944 1.312-9.577 1.968-10.898 1.968-1.524 0-2.921-.202-4.191-.606-1.016 1.918-2.515 3.961-4.496 6.131a560.621 560.621 0 01-5.335 5.526l-1.6.227c1.981-2.22 4.318-5.778 7.011-10.673 2.947-5.45 4.42-9.31 4.42-11.58 0-.606-.152-1.389-.457-2.347a82.151 82.151 0 01-.686-2.271c3.15.858 5.639 2.22 7.468 4.087-.406 1.413-1.194 3.028-2.362 4.845a137.937 137.937 0 01-2.972 4.466c3.15-.606 7.849-1.615 14.098-3.028l.152-8.63c.102-7.82-.762-12.665-2.591-14.532 1.321.1 2.845.454 4.573 1.06 2.184.756 3.277 1.589 3.277 2.497 0 2.07-.254 5.147-.762 9.235-.458 4.087-.686 7.14-.686 9.159.863-.101 2.489-.555 4.877-1.363 2.032-.656 3.683-.984 4.953-.984 2.185 0 3.912.606 5.183 1.817 0 .959-2.287 1.867-6.859 2.725l-8.688 1.514-.457 12.943c.864-.151 2.489-.605 4.877-1.362 2.083-.656 3.709-.984 4.878-.984 1.676 0 2.946.555 3.81 1.665l-.457 1.211c-.864.505-5.284 1.337-13.26 2.498v12.792c1.879-.151 5.258-.63 10.135-1.438 4.268-.656 7.646-.984 10.136-.984 4.826 0 7.951 1.438 9.373 4.314zM756.152 11.127c0 .706-.28 1.337-.838 1.892-.508.555-1.118.833-1.829.833-.204 0-1.347-1.236-3.43-3.71-2.337-2.825-3.607-4.339-3.81-4.54 3.861 0 6.452.554 7.773 1.665 1.423 1.261 2.134 2.548 2.134 3.86zm18.518 9.689c-.864.757-2.692 1.64-5.487 2.649-3.2 1.16-5.233 1.993-6.096 2.498 1.168-2.624 1.752-4.895 1.752-6.813l-.381-.984-.99-.303c-3.15 0-7.24.58-12.27 1.742l-12.193 2.724c-.254 3.028-.457 4.895-.609 5.602-.61 2.523-1.626 3.81-3.049 3.86-1.168-.908-1.752-2.044-1.752-3.406 0-.505.66-2.019 1.981-4.542 1.321-2.573 2.058-4.44 2.21-5.601l.991.227v2.347c1.371-.253 6.045-1.363 14.022-3.33 6.503-1.616 10.872-2.423 13.107-2.423 1.22 0 2.82.706 4.801 2.12 1.829 1.26 3.15 2.472 3.963 3.633zm-43.971-5.753c0 .656-.229 1.287-.686 1.892-.407.606-.94.909-1.6.909-.356 0-1.118-.657-2.287-1.969-1.117-1.311-3.277-3.128-6.477-5.45 3.912 0 6.706.53 8.382 1.59 1.728 1.06 2.591 2.07 2.591 3.028h.077zm44.2 45.416l-.839.832-1.447.227c-1.474 0-3.633-.328-6.478-.984-2.845-.605-5.004-.908-6.478-.908-2.895 0-7.163.53-12.802 1.59-5.589 1.11-9.831 1.665-12.727 1.665-2.185 0-3.937-.757-5.258-2.27 5.537-.405 9.856-.91 12.955-1.515 0-1.312-.051-11-.152-29.066 1.981.353 2.946.53 2.895.53 1.321 0 3.252-.454 5.792-1.362 2.54-.96 4.446-1.439 5.716-1.439 1.016 0 2.311.454 3.886 1.363 1.626.908 2.693 1.791 3.201 2.649-.559.656-1.296 1.741-2.21 3.255-.254.757-.407 8.099-.457 22.026 1.016 0 2.514-.075 4.496-.227 2.032-.1 3.556-.151 4.572-.151 1.22 0 2.388.303 3.506.908 1.219.757 1.829 1.716 1.829 2.877zm-40.771-14.533c-.864.858-3.328 3.734-7.392 8.629-3.709 4.49-5.843 6.888-6.401 7.19-.712-.605-1.398-1.488-2.058-2.649-.61-1.16-.915-2.17-.915-3.027l2.896-2.574c.458-4.643 1.042-11.632 1.753-20.967l-.762-.984c-2.591 1.665-3.912 2.498-3.963 2.498-1.473.757-2.997 1.135-4.572 1.135-1.982 0-3.48-.782-4.496-2.346 1.676-.404 3.378-.808 5.105-1.211 1.982-.505 3.608-1.085 4.878-1.741 1.016-.707 2.565-1.666 4.648-2.877l1.448-.53c1.88 0 3.252.631 4.116 1.893-.204.656-.839 1.766-1.906 3.33-1.016 1.514-1.549 2.574-1.6 3.18-.559 5.298-.838 11-.838 17.106 3.2-1.766 6.528-4.087 9.983-6.964v.909h.076zm22.786-9.992c0-3.583-.457-5.374-1.372-5.374-1.321 0-3.099.227-5.334.681-2.541.505-4.319.808-5.335.909.61.958.915 1.79.915 2.497 0 .858-.305 2.927-.915 6.207.559-.1 1.702-.58 3.43-1.438l2.591-1.287c2.133 0 3.53.555 4.191 1.666-.254.403-.61.731-1.067.983a514.484 514.484 0 00-9.297 2.196v5.904c.762-.05 1.905-.278 3.429-.682 1.524-.454 2.693-.68 3.506-.68 1.625 0 2.438.504 2.438 1.513 0 1.11-3.073 1.665-9.221 1.665v7.797c2.591-.152 6.452-.555 11.584-1.211.305-4.24.457-11.354.457-21.346zM826.761 9.613c-.508 1.16-3.277 2.044-8.307 2.65-3.302.353-6.579.706-9.831 1.059 0 1.362-.05 3.305-.152 5.828.508-.05 1.778-.227 3.81-.53 1.575-.252 2.871-.378 3.887-.378 3.353 0 5.03.53 5.03 1.59 0 .908-1.423 1.362-4.268 1.362-2.388 0-5.919.252-10.593.757-4.623.505-8.103.757-10.44.757-1.575 0-2.591-.63-3.048-1.892 4.877-.152 9.119-.53 12.726-1.136v-6.358c-2.337.303-4.648.58-6.935.833-2.794.353-5.131.53-7.011.53-1.727 0-2.87-.58-3.429-1.742 5.995-.454 11.787-1.236 17.375-2.346v-2.27c0-3.533-.787-6.309-2.362-8.327 1.473 0 2.946.202 4.42.606 2.083.504 3.124 1.261 3.124 2.27 0 .707-.305 1.893-.914 3.558-.61 1.615-.94 2.8-.991 3.557.864-.1 3.175-.454 6.935-1.06 2.794-.403 5.106-.605 6.935-.605 2.337 0 3.683.43 4.039 1.287zm-2.134 18.166c0 .454-.254.858-.762 1.211-1.169.909-2.261 1.489-3.277 1.741-.965.202-1.626.454-1.981.757-.61.606-1.499 1.968-2.668 4.088-5.537.454-8.637.731-9.297.832-3.556.354-6.63.909-9.221 1.666l-.61-.152c-1.219-2.17-3.2-5.349-5.944-9.537l.229-.681.533-.303c1.88.252 3.125.378 3.734.378 2.541 0 6.3-.378 11.279-1.135 4.979-.807 8.713-1.211 11.202-1.211 3.049 0 5.31.782 6.783 2.346zm17.375 19.15c-1.626.606-4.268.96-7.925 1.06h-8.231c-9.602 0-17.858.303-24.767.909-1.88.201-5.741.807-11.584 1.816-4.775.858-8.636 1.287-11.583 1.287-2.388 0-4.242-1.085-5.563-3.255 7.214 0 15.851-.605 25.91-1.816-.406-2.22-1.854-4.82-4.344-7.797l.305-.681.686-.303c3.658.505 5.538 3.306 5.639 8.402l11.432-1.06c1.727-1.715 3.454-5.248 5.182-10.596 2.387 1.06 4.115 2.472 5.182 4.238l-.534.681c-2.845 1.06-5.131 2.801-6.858 5.223 2.083-.05 5.385-.454 9.906-1.21 4.217-.707 7.494-1.06 9.831-1.06 3.963 0 6.402 1.387 7.316 4.163zm-15.013 9.765c-.355.858-1.6 1.993-3.734 3.406-2.083 1.464-3.353 2.675-3.81 3.633l1.295.303.458.757c0 1.11-3.379 1.943-10.136 2.498-4.268.202-8.535.429-12.803.681-.508 1.716-1.168 2.725-1.981 3.028l-2.439-8.023c-1.016-3.18-2.108-5.778-3.277-7.797l1.067-.908c.508 0 1.245.151 2.21.454.966.303 1.728.454 2.286.454 2.541 0 6.326-.53 11.355-1.59 5.081-1.06 8.866-1.589 11.355-1.589.61 0 1.981.63 4.115 1.892 2.134 1.262 3.48 2.196 4.039 2.801zM816.93 28.688a3.81 3.81 0 00-.076-.757l-.534-.152c-5.741 0-12.472.606-20.195 1.817l2.287 6.131c3.505-.303 8.789-.933 15.851-1.892l1.524-2.574c.762-1.21 1.143-2.069 1.143-2.573zm.762 28.384c0-.958-.381-1.438-1.143-1.438-5.03 0-11.609.555-19.738 1.666l1.22 8.629c1.067-.152 4.216-.404 9.449-.757 3.811-.253 6.91-.732 9.298-1.438 0-.101.203-1.186.609-3.255.203-1.363.305-2.498.305-3.407zM908.368 43.75c0 1.262-.508 1.893-1.524 1.893-.813 0-2.541-1.514-5.183-4.542a496.936 496.936 0 00-4.953-5.904c2.794.152 5.335.908 7.621 2.271 2.692 1.665 4.039 3.76 4.039 6.282zm-9.221-20.664c-.153.656-.585 1.363-1.296 2.12-.914 1.06-1.448 1.716-1.6 1.968-1.474 2.422-2.439 6.408-2.896 11.96-.559 6.963-1.143 11.48-1.753 13.548-1.27 4.895-3.785 8.503-7.544 10.824-1.677-2.472-4.344-6.08-8.002-10.824 1.321.656 2.642 1.287 3.963 1.893 1.778.807 3.124 1.21 4.039 1.21l1.067-.378c1.473-1.867 2.997-6.762 4.572-14.684 1.372-7.115 2.058-12.414 2.058-15.896l-.534-1.74-1.524-.228c-.864 0-2.032.202-3.506.606-1.981.605-3.149.933-3.505.984-1.169 11.858-5.919 21.698-14.251 29.52-4.928 4.643-8.433 6.863-10.516 6.661 5.893-3.633 10.719-8.78 14.479-15.441 3.455-6.157 5.589-12.893 6.401-20.21-3.15.656-5.08.984-5.791.984-1.22 0-2.769-.96-4.649-2.877 4.369 0 8.027-.403 10.974-1.21.609-8.075.914-12.213.914-12.414 0-2.372-.355-4.365-1.067-5.98 1.372.303 2.896.883 4.573 1.74 1.88.96 3.15 1.918 3.81 2.877-2.235 3.078-3.632 7.443-4.191 13.095.609-.1 1.956-.404 4.039-.908 1.676-.404 3.023-.606 4.039-.606 1.067 0 2.388.379 3.962 1.136 1.626.706 2.846 1.463 3.658 2.27h.077zm-30.102 9.462c0 8.73-1.448 13.095-4.344 13.095-.508 0-.991-.177-1.448-.53-.457-.404-.686-.858-.686-1.362 0-.455.407-1.287 1.22-2.498a27.635 27.635 0 003.734-8.932c.965.151 1.473.227 1.524.227zm-1.219-8.326c0 1.16-1.499 2.018-4.497 2.573-.152.05-2.159.303-6.02.757 0 1.817.025 4.567.076 8.25.102 3.634.153 6.359.153 8.176 0 13.523-1.321 20.639-3.963 21.345-1.118-1.11-1.677-3.457-1.677-7.04 0-1.16.153-2.573.457-4.238.204-1.413.432-2.8.686-4.163.508-3.987.864-11.152 1.067-21.497-.609.05-1.879.227-3.81.53-1.575.303-2.871.454-3.887.454-2.387 0-4.597-.656-6.63-1.968 5.436-.404 10.187-1.262 14.251-2.574l.229-6.888c.101-4.794-.61-9.234-2.134-13.322 3.556.404 6.096 1.943 7.621 4.618a2147.03 2147.03 0 00-1.525 7.493c-.609 2.977-.914 5.475-.914 7.494 3.912-.858 6.071-1.287 6.478-1.287 2.083 0 3.403.429 3.962 1.287h.077zM970.026 58.586l-1.219.909-17.375-.227c-13.565-.202-25.936 1.413-37.113 4.844-.864-.252-1.931-.807-3.201-1.665-1.473-.96-2.515-1.565-3.124-1.817 4.115 0 9.043-.404 14.784-1.211 4.928-.807 9.856-1.59 14.784-2.346V44.431l-4.115.757c-1.626.303-2.972.454-4.039.454-2.388 0-4.318-.959-5.792-2.877 4.928 0 9.577-.403 13.946-1.21V28.687c-5.944 1.312-9.577 1.968-10.898 1.968-1.524 0-2.921-.202-4.191-.606-1.016 1.918-2.515 3.961-4.496 6.131a549.355 549.355 0 01-5.335 5.526l-1.6.227c1.981-2.22 4.319-5.778 7.011-10.673 2.947-5.45 4.42-9.31 4.42-11.58 0-.606-.152-1.389-.457-2.347a82.151 82.151 0 01-.686-2.271c3.15.858 5.639 2.22 7.468 4.087-.406 1.413-1.194 3.028-2.362 4.845a136.306 136.306 0 01-2.972 4.466c3.15-.606 7.849-1.615 14.098-3.028l.153-8.63c.101-7.82-.763-12.665-2.592-14.532 1.321.1 2.846.454 4.573 1.06 2.184.756 3.277 1.589 3.277 2.497 0 2.07-.254 5.147-.762 9.235-.457 4.087-.686 7.14-.686 9.159.864-.101 2.489-.555 4.877-1.363 2.032-.656 3.684-.984 4.954-.984 2.184 0 3.912.606 5.182 1.817 0 .959-2.286 1.867-6.859 2.725l-8.688 1.514-.457 12.943c.864-.151 2.49-.605 4.877-1.362 2.083-.656 3.709-.984 4.878-.984 1.676 0 2.946.555 3.81 1.665l-.457 1.211c-.864.505-5.284 1.337-13.26 2.498v12.792c1.88-.151 5.258-.63 10.135-1.438 4.268-.656 7.646-.984 10.136-.984 4.826 0 7.951 1.438 9.373 4.314zM1016.25 11.127c0 .706-.28 1.337-.84 1.892-.5.555-1.11.833-1.82.833-.21 0-1.35-1.236-3.43-3.71-2.34-2.825-3.61-4.339-3.81-4.54 3.86 0 6.45.554 7.77 1.665 1.42 1.261 2.13 2.548 2.13 3.86zm18.52 9.689c-.86.757-2.69 1.64-5.49 2.649-3.2 1.16-5.23 1.993-6.09 2.498 1.17-2.624 1.75-4.895 1.75-6.813 0 0-.13-.328-.38-.984l-.99-.303c-3.15 0-7.24.58-12.27 1.742l-12.193 2.724c-.255 3.028-.458 4.895-.61 5.602-.61 2.523-1.626 3.81-3.048 3.86-1.169-.908-1.753-2.044-1.753-3.406 0-.505.66-2.019 1.981-4.542 1.321-2.573 2.058-4.44 2.21-5.601l.991.227v2.347c1.372-.253 6.042-1.363 14.022-3.33 6.5-1.616 10.87-2.423 13.11-2.423 1.22 0 2.82.706 4.8 2.12 1.83 1.26 3.15 2.472 3.96 3.633zm-43.97-5.753c0 .656-.229 1.287-.686 1.892-.406.606-.94.909-1.6.909-.356 0-1.118-.657-2.287-1.969-1.117-1.311-3.276-3.128-6.477-5.45 3.912 0 6.706.53 8.383 1.59 1.727 1.06 2.591 2.07 2.591 3.028h.076zm44.2 45.416l-.84.832c-.96.152-1.45.227-1.45.227-1.47 0-3.63-.328-6.47-.984-2.85-.605-5.01-.908-6.48-.908-2.9 0-7.16.53-12.8 1.59-5.59 1.11-9.835 1.665-12.731 1.665-2.184 0-3.937-.757-5.258-2.27 5.538-.405 9.856-.91 12.959-1.515 0-1.312-.05-11-.16-29.066 1.99.353 2.95.53 2.9.53 1.32 0 3.25-.454 5.79-1.362 2.54-.96 4.45-1.439 5.72-1.439 1.01 0 2.31.454 3.88 1.363 1.63.908 2.7 1.791 3.2 2.649-.55.656-1.29 1.741-2.21 3.255-.25.757-.4 8.099-.45 22.026 1.01 0 2.51-.075 4.49-.227 2.04-.1 3.56-.151 4.58-.151 1.21 0 2.38.303 3.5.908 1.22.757 1.83 1.716 1.83 2.877zm-40.771-14.533c-.863.858-3.328 3.734-7.392 8.629-3.709 4.49-5.842 6.888-6.401 7.19-.712-.605-1.397-1.488-2.058-2.649-.61-1.16-.914-2.17-.914-3.027l2.895-2.574c.458-4.643 1.042-11.632 1.753-20.967l-.762-.984c-2.591 1.665-3.912 2.498-3.962 2.498-1.474.757-2.998 1.135-4.573 1.135-1.981 0-3.48-.782-4.496-2.346a771.15 771.15 0 015.106-1.211c1.981-.505 3.607-1.085 4.877-1.741 1.016-.707 2.566-1.666 4.649-2.877l1.447-.53c1.88 0 3.252.631 4.116 1.893-.204.656-.839 1.766-1.905 3.33-1.017 1.514-1.55 2.574-1.601 3.18-.559 5.298-.838 11-.838 17.106 3.201-1.766 6.528-4.087 9.983-6.964v.909h.076zm22.791-9.992c0-3.583-.46-5.374-1.38-5.374-1.32 0-3.1.227-5.33.681-2.54.505-4.32.808-5.34.909.61.958.92 1.79.92 2.497 0 .858-.31 2.927-.92 6.207.56-.1 1.71-.58 3.43-1.438 1.73-.858 2.59-1.287 2.59-1.287 2.14 0 3.54.555 4.2 1.666-.26.403-.61.731-1.07.983-2.69.606-5.79 1.338-9.3 2.196v5.904c.76-.05 1.91-.278 3.43-.682 1.53-.454 2.69-.68 3.51-.68 1.62 0 2.44.504 2.44 1.513 0 1.11-3.08 1.665-9.23 1.665v7.797c2.6-.152 6.46-.555 11.59-1.211.3-4.24.46-11.354.46-21.346z"/>
</svg>
