<svg xmlns="http://www.w3.org/2000/svg" width="853" height="76" fill="none" viewBox="0 0 853 76">
  <path fill="#fff" d="M57.88 15.88 53 12.76c-1.52.32-3.12.4-4.32.4H8.6c-2.64 0-5.84-.24-8-.56v7.12c2-.08 4.72-.24 7.92-.24h40.96c-1.12 7.68-4.8 18.8-10.48 26.08-6.72 8.56-15.68 15.36-31.2 19.2l5.44 6c14.64-4.56 24.16-12 31.44-21.36 6.4-8.24 10.24-21.12 12-29.52.32-1.6.64-2.88 1.2-4Zm19.2 18.48v7.84c2.56-.16 6.8-.32 11.2-.32h43.92c3.52 0 6.88.24 8.56.32v-7.84c-1.84.16-4.64.48-8.64.48H88.28c-4.56 0-8.72-.24-11.2-.48Zm88.16-23.76v6.64c2.08-.16 4.64-.32 7.36-.32h27.6c2.24 0 5.04.16 7.44.32V10.6c-2.32.24-5.2.4-7.44.4h-27.76c-2.56 0-4.96-.16-7.2-.4Zm-9.52 20.08v6.64c2.16-.16 4.56-.24 6.96-.24H215c2 0 4.56.08 6.32.24v-6.64c-2 .24-4.64.4-6.32.4h-52.32c-2.48 0-4.8-.16-6.96-.4Zm37.68 3.2-6.72.08c-.08 8.8-.64 16.64-4.64 22.96-3.2 5.12-8.96 9.68-15.12 12.32l5.92 4.32c6.8-3.44 12.8-9.2 15.76-14.56 3.52-6.72 4.8-15.04 4.8-25.12Zm18.4-29.84-4.24 1.84c2.16 3.04 4.88 7.84 6.4 11.04l4.32-1.92c-1.6-3.2-4.48-8.08-6.48-10.96Zm8.72-3.2-4.16 1.84c2.24 2.96 4.88 7.52 6.64 10.96l4.24-1.92c-1.52-2.96-4.56-7.92-6.72-10.88Zm12.535 47.6 3.12 5.92c10.64-3.28 21.76-8.56 28.48-12.56 8.32-5.04 16.64-12 21.28-16.96l-4.96-4.8c-4.16 5.04-11.52 11.68-19.04 16.24-6.56 4-18.32 9.6-28.88 12.16Zm28.16-8.48v28.32c0 2.4-.24 5.76-.4 6.96h7.44c-.32-1.2-.4-4.56-.4-6.96v-30l-6.64 1.68Zm50.24-5.6v7.84c2.56-.16 6.8-.32 11.2-.32h43.92c3.52 0 6.88.24 8.56.32v-7.84c-1.84.16-4.64.48-8.64.48h-43.84c-4.56 0-8.72-.24-11.2-.48Zm128.416-30.4-4.24 1.76c2.16 3.12 4.88 7.84 6.48 11.12l4.32-1.92c-1.52-3.2-4.48-8.08-6.56-10.96Zm9.12-2.8-4.24 1.76c2.24 3.04 4.88 7.52 6.64 11.04l4.32-1.92c-1.52-2.96-4.64-8-6.72-10.88Zm-7.28 15.76-4-3.12c-1.28.4-3.44.72-6 .72h-30.88c-2.48 0-7.04-.4-8.08-.56v7.28c.88-.08 5.2-.4 8.08-.4h31.2c-2.08 6.64-7.92 16.08-13.36 22.24-8.24 9.2-20 18.72-32.96 23.76l5.12 5.36c12.64-5.76 24.08-15.36 33.04-25.28 6.64-7.44 12.72-18.64 15.92-26.48.4-1.12 1.44-2.88 1.92-3.52Zm-16.8 25.76-4.56 4.56c8.64 7.52 18 17.76 23.76 25.36l5.52-4.8c-5.44-6.72-16.08-17.92-24.72-25.12Zm66.32-20.96.08 6.08c4.64.32 8.8.48 13.44.48 9.36 0 19.12-.64 27.6-2.08v-6.16c-8.08 1.68-17.92 2.4-27.52 2.4-4.72 0-9.04-.24-13.6-.72Zm28-14.32h-7.2c.24 1.44.32 3.52.32 4.96 0 2.8.08 7.84.08 13.36 0 10.56 1.04 25.52 1.04 31.28 0 5.36-1.92 8.72-8.64 8.72-5.84 0-9.76-2.16-9.76-6.32 0-3.84 4.16-6.48 10.16-6.48 10.16 0 18.24 5.44 26.64 13.28l3.44-5.28c-6.72-6.08-16.08-12.88-29.52-12.88-10.56 0-16.48 5.28-16.48 12 0 7.2 5.84 11.52 16.56 11.52 10.8 0 13.84-6.4 13.84-12.96 0-8.24-1.2-20.72-1.2-33.04 0-4.72.08-10.4.24-13.36.08-1.52.24-3.2.48-4.8Zm-39.44.56-7.04-.64c-.08 1.76-.24 3.84-.56 5.76-.96 6.56-3.68 21.84-3.68 33.6 0 10.8 1.52 19.6 3.04 25.36l5.68-.48c-.08-.8-.16-2-.24-2.8-.08-.88.08-2.48.32-3.6.8-3.92 3.76-12.08 5.76-17.68l-3.28-2.56c-1.36 3.28-3.36 8.16-4.64 11.84-.56-3.92-.8-7.28-.8-11.2 0-8.96 2.4-24.8 4-32.24.32-1.44.96-4.08 1.44-5.36Zm97.52 32.8v34.72h6.08V40.76h-6.08Zm-12.88-10.96h30.24v7.76h-30.24V29.8Zm-5.84-4.56V42.2h42.24V25.24h-42.24Zm-7.12 23.6V71.8h6V54.28h47.6v-5.44h-53.6Zm50.64 0v16.72c0 .88-.4 1.2-1.6 1.28-1.28.08-5.6.08-10.4-.08.88 1.6 1.76 3.84 2.08 5.44 6.24 0 10.32 0 12.88-.96 2.48-.88 3.12-2.56 3.12-5.68V48.84h-6.08ZM576.751 1.8v14.56h6.16V1.8h-6.16Zm-30.56 12.4v17.28h5.84V19.56h55.04v11.92h6V14.2h-66.88Zm6.64-9.44c2.48 2.96 5.2 7.12 6.4 9.84l5.76-2.64c-1.36-2.64-4.16-6.48-6.8-9.36l-5.36 2.16Zm47.52-2.32c-1.52 2.88-4.48 7.2-6.72 9.84l4.88 2c2.4-2.48 5.44-6.16 8.08-9.68l-6.24-2.16ZM655.791 15l.08 6.48c8.72.96 24.24.96 32.8 0V15c-7.92 1.2-24.16 1.52-32.88 0Zm3.12 32.64-5.76-.56c-.88 3.84-1.28 6.72-1.28 9.36 0 7.52 6 12 19.36 12 8.32 0 15.04-.64 20-1.68l-.16-6.72c-6.4 1.52-12.64 2.16-19.76 2.16-10.96 0-13.52-3.6-13.52-7.28 0-2.16.4-4.4 1.12-7.28Zm-18.32-38.8-7.12-.56c-.08 1.76-.32 3.76-.56 5.6-.96 6.64-3.6 20.32-3.6 32.08 0 10.88 1.36 20.08 2.96 25.76l5.68-.4c-.08-.88-.16-2-.24-2.8 0-.96.16-2.48.4-3.6.72-3.84 3.68-12.24 5.68-17.92l-3.36-2.64c-1.36 3.28-3.2 8.08-4.56 11.68-.48-3.92-.72-7.28-.72-11.12 0-9.04 2.48-23.28 4-30.72.32-1.44.96-4 1.44-5.36Zm69.36-4.08v5.52h15.6V4.76h-15.6Zm21.36 11.6v5.04h43.28v-5.04h-43.28Zm-2 13.2v5.12h46.64v-5.12h-46.64Zm5.44 17.92v5.04h30.72v-5.04h-30.72Zm-25.12-23.92v5.52h14.96v-5.52h-14.96Zm-.08 19.2v5.6h15.12v-5.6h-15.12Zm-2.24-38v28.72c0 11.84-.4 27.92-5.44 39.2 1.36.48 3.68 1.76 4.72 2.72 5.28-11.84 5.92-29.52 5.92-41.92V4.76h-5.2Zm14.8 0v63.6c0 1.12-.4 1.44-1.44 1.52-.88.08-4 .08-7.36-.08.72 1.6 1.44 4.16 1.68 5.52 5.04.08 7.92-.08 9.92-1.04 1.92-.96 2.56-2.72 2.56-5.76V4.76h-5.36Zm38.16 14.08-4.8 1.04c3.28 13.04 9.52 24.88 18.32 30.88.88-1.52 2.64-3.6 3.92-4.72-8.24-4.8-14.48-15.76-17.44-27.2Zm5.04-15.92c-1.28 3.6-3.84 8.8-5.76 12.08l4.64 1.6c2.16-3.04 4.64-7.76 6.8-12l-5.68-1.68Zm-17.6 35.84c-.96 15.52-3.36 26.56-18.4 32.32 1.28 1.04 2.8 3.12 3.44 4.56 16.32-6.72 19.44-19.28 20.56-36.88h-5.6Zm.64-36.96c-2.48 20.48-8.24 35.68-21.44 44.48 1.28 1.12 3.12 3.52 3.76 4.64 13.84-10.16 20.24-26.16 23.28-48.56l-5.6-.56Zm15.28 45.68v.88c-.72 14.24-1.52 19.6-2.88 21.04-.64.64-1.28.72-2.4.72-1.28 0-4.48 0-7.84-.32.88 1.36 1.44 3.52 1.52 5.12 3.52.16 6.96.16 8.8 0 2.08-.16 3.44-.64 4.72-2.08 1.92-2.16 2.8-7.84 3.68-22.96.08-.8.08-2.4.08-2.4h-5.68Zm-30.8-42.56c2.08 3.52 4.08 8.32 4.72 11.44l5.04-1.92c-.8-3.04-2.96-7.68-5.2-11.2l-4.56 1.68Zm50.48 21.04v5.6h38.08v-5.6h-38.08Zm43.44-14.64v44.24h5.84V11.32h-5.84Zm-26.64-2.72v66.72h5.92V8.6h-5.92Zm46.32-5.28v64.16c0 1.52-.64 2-2.16 2-1.52.08-6.48.08-12.24-.08.96 1.76 1.92 4.4 2.24 6.08 7.36.08 11.84-.08 14.48-1.12 2.56-.96 3.6-2.8 3.6-6.96V3.32h-5.92Zm-30.4-1.04c-7.52 3.36-21.44 6.08-33.28 7.76.72 1.28 1.6 3.36 1.84 4.8 12.16-1.6 26.64-4.24 35.92-7.92l-4.48-4.64Zm-16.16 26.24c-3.52 10.72-11.28 23.44-18.32 30.16 1.04 1.52 2.56 3.92 3.28 5.68 7.44-7.6 15.28-21.92 19.36-34.08l-4.32-1.76Zm5.36 8.24-3.28 3.2c3.68 3.12 12.4 11.52 15.68 15.2l3.52-5.04c-2.56-2.24-12.88-11.2-15.92-13.36Z"/>
</svg>
