<svg xmlns="http://www.w3.org/2000/svg" width="143" height="27" fill="none" viewBox="0 0 143 27">
  <path fill="#fff" d="M2.154 11.26c.128-.023.259-.03.389-.02.145.007.29-.013.43-.057a42.92 42.92 0 01.373-3.088c.157-.996.327-2.026.508-3.088-.142 0-.301-.007-.479-.02a6.267 6.267 0 00-.478-.02c-.71-.01-1.42.028-2.125.117L.56 3.958c.61-.232 1.23-.427 1.859-.583a52.71 52.71 0 011.858-.428.085.085 0 01.018-.058.082.082 0 00.019-.058L4.807.965l.956.155c0 .364 0 .615.018.758.01.253.004.506-.018.758a60.182 60.182 0 013.138-.388c1.051-.103 2.042-.187 2.973-.253.934-.065 1.76-.104 2.478-.117.719-.013 1.268-.019 1.648-.019.118 1.164.212 2.193.283 3.088.07.895.106 1.64.106 2.234a19.505 19.505 0 00-2.354-1.049 14.125 14.125 0 00-2.073-.583 17.599 17.599 0 00-1.948-.271 47.504 47.504 0 00-1.949-.117 6.772 6.772 0 00-1.044-.078c-.372 0-.726-.013-1.08-.04H5.73V8.29c0 .867.012 1.754.036 2.66.165 0 .33 0 .495-.018a4.73 4.73 0 01.532-.02 26.568 26.568 0 013.49.214c.975.122 1.94.323 2.887.602l-.105 1.126c-1.63.104-3.018.22-4.163.35a17.891 17.891 0 00-3.03.582c.094 1.478.283 3.193.567 5.147a75.31 75.31 0 001.452 7.09c-.663.007-1.325.052-1.983.136-.756.09-1.582.24-2.478.447a64.828 64.828 0 01-.531-4.428 56.584 56.584 0 01-.214-4.934c0-.492-.011-.86-.034-1.107a6.822 6.822 0 01.034-1.147c-.235.13-.465.26-.69.389-.224.128-.502.284-.832.466-.826-1.76-1.004-3.236-.532-4.428l1.522-.155zM35.809 2.17l.07.156c.472.026.95.065 1.435.117.485.052 1.034.116 1.647.194v1.124l-1.17.197a12.33 12.33 0 00-1.17.272 26.22 26.22 0 011.1 4.31c.211 1.347.318 2.71.318 4.077 0 .364-.006.751-.017 1.166-.01.39-.04.779-.09 1.165-.057.998-.176 1.991-.354 2.972a54.727 54.727 0 01-.602 2.971c.709.077 1.464.194 2.267.35l-1.665 4.778-2.265-.852c-.188.285-.354.544-.496.758a4.4 4.4 0 01-.46.602l-.78-.543c.094-.286.171-.511.23-.68.067-.196.12-.397.16-.601a18.337 18.337 0 00-2.87-.544 26.284 26.284 0 00-2.408-.117h-.638a4.43 4.43 0 00-.602.04l.39.66-4.783 1.592a6.599 6.599 0 01-.3-.777c-.083-.258-.184-.53-.302-.815l-2.444.738-.433-1.05.991-.622c.212-.17.438-.32.674-.447.26-.142.484-.278.673-.407a22.169 22.169 0 01-.762-3.613 28.443 28.443 0 01-.194-3.303V15.3c-.002-.26.01-.519.036-.777a61.01 61.01 0 01.194-2.174c.084-.786.22-1.565.408-2.33l-.496.272a11.527 11.527 0 01-1.062-3.805c.826-.543 1.54-1.003 2.143-1.379a21.798 21.798 0 011.505-.873l.354-.7.674-1.32.921.543a3.17 3.17 0 01-.137.324.669.669 0 01-.054.078.272.272 0 00-.036.058c-.025.089-.043.18-.053.272.26-.103.526-.182.798-.234.27-.051.584-.103.938-.155l.709-.078c.518-.104 1.109-.214 1.772-.33.739-.125 1.483-.21 2.23-.252C33.409 1.431 34.532.81 35.169.577l.64 1.593zm-1.383 12.12a46.579 46.579 0 00-.78-4.39 27.621 27.621 0 00-1.453-4.467 43.29 43.29 0 00-3.931 1.419 84.122 84.122 0 00-4.004 1.8 16.345 16.345 0 00-.07 1.555c0 .207 0 .407.017.62.017.214.017.408.017.623.036 1.444.155 2.883.355 4.31.213 1.582.744 3.408 1.594 5.48a12.043 12.043 0 012.462-.525c.72-.066 1.423-.11 2.107-.136.253-.028.507-.042.762-.04h1.966c.306 0 .696.026 1.168.078.047-.36.071-.723.071-1.087v-1.087c0-.7-.023-1.391-.07-2.079a31.707 31.707 0 00-.211-2.073zM59.474 2.17l.071.156c.472.026.95.065 1.435.117.485.052 1.034.116 1.648.194v1.124l-1.171.197c-.307.051-.697.142-1.169.272.486 1.397.854 2.84 1.098 4.31.213 1.347.32 2.71.319 4.077 0 .364-.006.751-.018 1.166-.01.39-.04.779-.088 1.165a25.03 25.03 0 01-.354 2.972 54.727 54.727 0 01-.602 2.971 27.37 27.37 0 012.266.35l-1.664 4.778-2.266-.852c-.19.285-.355.544-.496.758a4.492 4.492 0 01-.46.602l-.779-.543c.094-.286.171-.511.23-.68a4.64 4.64 0 00.16-.601 18.337 18.337 0 00-2.87-.544 26.287 26.287 0 00-2.41-.117h-.636a4.43 4.43 0 00-.602.04l.389.66-4.793 1.59a7.062 7.062 0 01-.3-.776c-.083-.258-.184-.53-.302-.816l-2.445.738-.422-1.049.991-.62c.212-.172.437-.321.673-.448.26-.142.484-.278.673-.407a22.013 22.013 0 01-.761-3.613 28.466 28.466 0 01-.196-3.303V15.3c0-.26.011-.519.036-.777.047-.672.112-1.397.195-2.174.084-.786.22-1.565.407-2.33l-.495.272a11.502 11.502 0 01-1.063-3.805c.826-.543 1.54-1.003 2.143-1.379a22.21 22.21 0 011.506-.873l.354-.7.673-1.32.92.543c-.039.111-.085.22-.137.324a.449.449 0 01-.053.078.228.228 0 00-.035.058c-.026.089-.044.18-.053.272.258-.103.525-.182.796-.234.272-.051.585-.103.94-.155l.707-.078c.519-.104 1.11-.214 1.772-.33.739-.125 1.483-.209 2.23-.252C57.073 1.431 58.195.81 58.833.577l.641 1.593zM58.09 14.29a46.179 46.179 0 00-.78-4.39 27.6 27.6 0 00-1.451-4.467 43.054 43.054 0 00-3.933 1.419 84.85 84.85 0 00-4.003 1.8 17.661 17.661 0 00-.071 1.555c0 .207.006.407.019.62.012.214.017.408.017.623.035 1.444.154 2.883.354 4.31.212 1.582.744 3.408 1.594 5.48a12.07 12.07 0 012.462-.525c.72-.066 1.422-.11 2.106-.136.253-.028.507-.042.76-.04h1.97c.307 0 .696.026 1.17.078.046-.36.07-.723.07-1.087v-1.087a30.378 30.378 0 00-.284-4.152zM67.619 5.201h-.036c.213-.182.412-.344.602-.486a11.7 11.7 0 01.78-.525c-.048-.414-.095-.854-.142-1.32-.048-.466-.083-.88-.107-1.244L73.074.577c0 .183 0 .466.017.855.018.389.018.66.018.815.236-.079.472-.161.709-.252.236-.091.472-.176.708-.253l-.354-.194L74.526.5c.757.163 1.502.384 2.23.66.214-.051.432-.097.656-.136.224-.038.442-.084.655-.135l1.205-.272.177 1.63c.213.104.413.207.602.31.19.103.372.22.566.35h-.034c.673.396 1.308.864 1.897 1.397a21.516 21.516 0 011.576 1.63 26.4 26.4 0 011.452 2.039c.496.763.968 1.573 1.417 2.428l.106.232v-.038c.094.136.177.253.247.368.08.139.14.29.178.447.258-.388.483-.712.672-.971l.85.583-.85 2.06c.259.905.507 1.967.744 3.184l-4.074 1.555v-.117a56.813 56.813 0 01-2.445 2.738 15.255 15.255 0 01-2.904 2.39 17.039 17.039 0 01-3.56 1.69c-1.31.453-2.864.705-4.659.757-.024.105-.053.21-.089.31a9.996 9.996 0 00-.088.273.504.504 0 00-.106.213c-.024.09-.06.292-.107.602l-1.027-.116c0-.13.006-.273.019-.428.01-.155.017-.271.017-.349a.25.25 0 01.033-.148v-.35l-2.515-.154c.124-.26.248-.59.408-.99.16-.401.307-.816.46-1.223.154-.408.302-.816.443-1.204.141-.389.26-.726.354-1.011.308.053.508.084.603.098.082.012.164.018.247.019a187.817 187.817 0 00-.212-6.856 224.16 224.16 0 00-.531-7.949l-.974.427c-.357.161-.706.343-1.046.543l-.566-.971 1.066-.814zm13.603 2.951a28.05 28.05 0 00-1.417-2.096 13.873 13.873 0 00-1.914-2.06 27.133 27.133 0 00-2.745.253c-.662.1-1.318.235-1.967.407.024.442.03.862.019 1.263-.011.4-.019.783-.019 1.146a81.471 81.471 0 01-.124 4.584 27.474 27.474 0 01-.158 1.846c-.071.583-.142 1.185-.213 1.805l-.177 1.902c-.07.597-.136 1.173-.195 1.729-.06.558-.147 1.198-.266 1.924 1.817-.052 3.276-.207 4.376-.466a14.656 14.656 0 002.815-.934c.472-.206.92-.413 1.347-.62.442-.217.868-.47 1.275-.759.454-.32.887-.678 1.294-1.068.498-.482.965-1 1.398-1.553a37.116 37.116 0 00-1.47-3.905 26.47 26.47 0 00-1.859-3.398zm-3.153-4.156h-.178l-.14-.078.318.078zM93.94 26.061a118.025 118.025 0 01-.284-4.448c-.07-1.542-.106-3.102-.108-4.68.002-2.474.132-4.945.39-7.402.271-2.556.781-5.075 1.523-7.516l.957.234c-.023.415-.035.848-.036 1.3v1.418c0 2.512.142 5.497.426 8.954.336 3.844.868 7.665 1.595 11.443l-4.463.697zM104.672 11.222a.742.742 0 01.284-.02.844.844 0 00.354-.058c.071-1.087.184-2.162.337-3.224a67.19 67.19 0 01.549-3.224c-.52-.052-.998-.085-1.434-.098a5.373 5.373 0 00-1.081.058l-.213-1.167a17.54 17.54 0 011.435-.388c.461-.104.927-.208 1.4-.312l.389-.077a3.747 3.747 0 00.177-.622l.248-1.01.956.155v1.243a51.322 51.322 0 013.384-.272 62.764 62.764 0 013.031-.076c.638 0 1.275.013 1.913.038.638.028 1.086.053 1.346.08.024.491.053 1.016.089 1.573.036.557.058 1.087.071 1.592.012.505.023.951.035 1.34.013.388.018.66.018.815a15.406 15.406 0 00-2.178-1.166 15.473 15.473 0 00-3.722-1.065 69.777 69.777 0 00-1.755-.253c-.449-.051-.82-.098-1.115-.136a60.916 60.916 0 00-1.151-.136v3.419c0 .88.011 1.774.034 2.68.331-.025.656-.039.974-.039h.98c2.53.003 5.055.25 7.545.738l-.071 1.166c-2.031.208-3.784.396-5.259.562a23.243 23.243 0 00-4.021.796c.071 1.038.177 2.151.318 3.342.142 1.19.378 2.563.709 4.118.473-.026.945-.039 1.416-.04h1.418c1.487 0 2.915.053 4.286.157 1.37.104 2.538.235 3.502.392l-1.734 4.273a211.166 211.166 0 00-2.887-.739 89.105 89.105 0 00-2.248-.528c-.661-.142-1.245-.264-1.753-.369a113.37 113.37 0 00-1.363-.271l.32 1.243c-.652.008-1.303.06-1.949.155a48.59 48.59 0 00-2.55.427l-.32-2.33a216.03 216.03 0 00-1.541-.155c-.532-.052-1.046-.104-1.541-.157l-.035-1.126c.495-.13.973-.246 1.434-.35.498-.108 1-.186 1.506-.233a38.948 38.948 0 01-.159-2.33 65.582 65.582 0 01-.053-2.526v-.912c0-.194.011-.511.035-.95-.212.103-.438.207-.673.31-.236.104-.485.22-.744.35-.119-2.124-.378-3.613-.779-4.468l1.836-.195zM136.874 23.692c-.686.515-1.423.945-2.196 1.28-.61.252-1.238.447-1.878.584a11.34 11.34 0 01-2.763.31 18.323 18.323 0 01-2.834-.252 33.49 33.49 0 01-3.794-.873l2.02-3.847c.85.13 1.641.234 2.372.311.732.077 1.406.116 2.02.117a21.011 21.011 0 005.845-.816 57.771 57.771 0 00-1.523-3.302 32.825 32.825 0 00-1.347-2.428c-.374-.61-.776-1.2-1.204-1.766a20.818 20.818 0 00-1.062-1.282 22.41 22.41 0 00-1.577-1.573 9.524 9.524 0 00-.904-.719c-.33-.234-.708-.493-1.133-.777-.543.26-1.092.551-1.647.874-.555.322-1.105.665-1.648 1.03l-.566-.972c.425-.44.785-.81 1.08-1.107.295-.298.643-.615 1.045-.951l-.567-.312-.85-.543.355-1.049 2.412.85a22.681 22.681 0 0112.718-4.817l.956 5.36a64.59 64.59 0 00-2.444-.31 18.67 18.67 0 00-1.877-.117c-1.151-.005-2.3.093-3.436.29a22.21 22.21 0 00-3.047.759c1.865.906 3.347 1.793 4.446 2.66a18.405 18.405 0 012.745 2.623 32.685 32.685 0 012.182 2.975c.626.972 1.14 1.833 1.542 2.582a19.999 19.999 0 001.77-1.089l.602.895-.707.777a4.666 4.666 0 00-.514.504c-.107.13-.254.299-.443.505.228.52.4 1.067.513 1.63.083.466.124.725.124.778l-4.356 2.29-.43-1.082z"/>
</svg>
