<svg xmlns="http://www.w3.org/2000/svg" width="33" height="33" fill="none" viewBox="0 0 33 33">
  <path fill="#fff" d="M27.538 4.688a15.906 15.906 0 0 0-5.203-3.48A15.965 15.965 0 0 0 16.185 0C7.345 0 .139 7.172.13 15.976c0 2.82.74 5.563 2.14 7.992L0 32.25l8.512-2.221a16.12 16.12 0 0 0 7.674 1.945h.008c8.844 0 16.048-7.172 16.056-15.984a15.86 15.86 0 0 0-1.222-6.12 15.915 15.915 0 0 0-3.492-5.182h.002Zm-11.352 24.58a13.335 13.335 0 0 1-6.795-1.854l-.486-.29-5.05 1.319 1.349-4.905-.316-.505a13.179 13.179 0 0 1-2.04-7.065c0-7.309 5.988-13.271 13.346-13.271 1.753-.003 3.489.34 5.108 1.007 1.62.668 3.09 1.649 4.327 2.885a13.213 13.213 0 0 1 2.895 4.308 13.164 13.164 0 0 1 1.009 5.085c-.008 7.335-5.995 13.287-13.347 13.287Zm7.32-9.944c-.4-.2-2.37-1.165-2.74-1.302-.369-.131-.638-.2-.901.2-.27.396-1.039 1.301-1.27 1.561-.23.268-.47.299-.87.101-.4-.201-1.693-.62-3.224-1.985-1.194-1.058-1.994-2.369-2.233-2.766-.23-.399-.022-.612.178-.812.176-.177.399-.468.6-.697.202-.23.269-.4.4-.665.132-.27.07-.5-.03-.7-.101-.2-.901-2.169-1.24-2.963-.323-.784-.653-.675-.9-.685-.231-.014-.5-.014-.77-.014a1.482 1.482 0 0 0-1.07.498c-.37.399-1.4 1.364-1.4 3.333 0 1.97 1.438 3.862 1.64 4.13.199.268 2.823 4.298 6.85 6.031a22.4 22.4 0 0 0 2.286.843c.962.306 1.83.26 2.523.16.769-.116 2.37-.967 2.709-1.9.332-.935.332-1.733.23-1.9-.099-.17-.368-.269-.769-.468Z"/>
</svg>
