<svg xmlns="http://www.w3.org/2000/svg" width="45" height="33" fill="none" viewBox="0 0 45 33">
  <path fill="#fff" d="M44.25 15.986c0-.11 0-.233-.005-.377-.005-.402-.015-.854-.025-1.335a75.137 75.137 0 0 0-.217-4.065c-.148-1.792-.365-3.286-.662-4.407a6.932 6.932 0 0 0-1.777-3.096A6.882 6.882 0 0 0 38.487.913C37.089.536 34.353.303 30.5.16a231.14 231.14 0 0 0-5.754-.14C24.061.01 23.424.006 22.851 0h-1.452c-.573.005-1.21.01-1.896.02-1.961.025-3.922.07-5.754.139C9.897.308 7.156.54 5.763.913a6.874 6.874 0 0 0-3.078 1.792A6.924 6.924 0 0 0 .91 5.802C.607 6.923.395 8.417.247 10.209a74.21 74.21 0 0 0-.217 4.065c-.015.481-.02.933-.025 1.335 0 .144-.005.268-.005.377v.278c0 .11 0 .233.005.377.005.402.015.854.025 1.335.04 1.385.108 2.765.217 4.065.148 1.792.365 3.285.662 4.407a6.9 6.9 0 0 0 4.854 4.889c1.393.377 4.134.61 7.986.754 1.832.07 3.793.114 5.754.14.686.01 1.323.014 1.896.019h1.452c.573-.005 1.21-.01 1.896-.02 1.961-.025 3.922-.07 5.754-.139 3.852-.149 6.593-.382 7.986-.754a6.89 6.89 0 0 0 4.854-4.889c.302-1.122.514-2.615.662-4.407.109-1.3.178-2.68.217-4.065.015-.481.02-.933.025-1.335 0-.144.005-.268.005-.377v-.278Zm-3.556.258c0 .104 0 .218-.005.352-.005.388-.015.814-.024 1.276a67.378 67.378 0 0 1-.208 3.866c-.133 1.598-.32 2.909-.553 3.787a3.331 3.331 0 0 1-2.34 2.358c-1.038.277-3.65.5-7.201.635a223.107 223.107 0 0 1-7.532.154H21.42l-1.867-.015c-1.931-.025-3.862-.07-5.665-.14-3.55-.138-6.168-.357-7.2-.634a3.34 3.34 0 0 1-2.341-2.358c-.232-.878-.42-2.189-.553-3.787a72.231 72.231 0 0 1-.208-3.866c-.014-.462-.02-.893-.024-1.276 0-.134-.005-.253-.005-.352v-.238c0-.104 0-.219.005-.353.005-.387.015-.813.024-1.275.035-1.32.104-2.64.208-3.866.133-1.598.32-2.909.553-3.787a3.331 3.331 0 0 1 2.34-2.357c1.038-.278 3.65-.502 7.201-.636a223.24 223.24 0 0 1 7.532-.154h1.412l1.867.015c1.931.025 3.862.07 5.665.14 3.55.138 6.168.357 7.2.634a3.34 3.34 0 0 1 2.341 2.358c.232.878.42 2.189.553 3.787a72.13 72.13 0 0 1 .208 3.866c.014.462.02.893.024 1.275 0 .134.005.254.005.353v.238ZM17.73 22.776l11.457-6.7L17.73 9.473v13.302Z"/>
</svg>
