<svg xmlns="http://www.w3.org/2000/svg" width="169" height="26" fill="none" viewBox="0 0 169 26">
  <path fill="#B0B1B4" d="m28.063 8.843-8.694-1.146L15.483.553a1.045 1.045 0 0 0-.497-.45c-.54-.243-1.198-.04-1.469.45L9.631 7.697.937 8.843c-.24.03-.458.133-.626.288A.948.948 0 0 0 0 9.84a.953.953 0 0 0 .33.699l6.29 5.56-1.486 7.853a.906.906 0 0 0 .065.542c.077.172.205.32.37.43a1.188 1.188 0 0 0 1.154.075L14.5 21.29l7.776 3.707c.212.103.459.137.695.1.596-.093.997-.606.894-1.146L22.379 16.1l6.29-5.561a.963.963 0 0 0 .318-.568c.093-.544-.325-1.047-.924-1.127Zm35 0-8.694-1.146L50.483.553a1.045 1.045 0 0 0-.497-.45c-.54-.243-1.198-.04-1.469.45l-3.886 7.144-8.694 1.146c-.24.03-.458.133-.626.288a.948.948 0 0 0-.31.708.953.953 0 0 0 .33.699l6.29 5.56-1.486 7.853a.907.907 0 0 0 .065.542c.077.172.205.32.37.43a1.188 1.188 0 0 0 1.154.075L49.5 21.29l7.776 3.707c.212.103.459.137.695.1.596-.093.997-.606.894-1.146L57.379 16.1l6.29-5.561a.963.963 0 0 0 .318-.568c.093-.544-.325-1.047-.924-1.127Zm35 0-8.694-1.146L85.483.553a1.045 1.045 0 0 0-.497-.45c-.54-.243-1.198-.04-1.469.45l-3.886 7.144-8.694 1.146c-.24.03-.458.133-.626.288a.948.948 0 0 0-.31.708.953.953 0 0 0 .33.699l6.29 5.56-1.486 7.853a.907.907 0 0 0 .065.542c.077.172.205.32.37.43a1.188 1.188 0 0 0 1.154.075L84.5 21.29l7.776 3.707c.212.103.459.137.695.1.596-.093.996-.606.894-1.146L92.379 16.1l6.29-5.561a.963.963 0 0 0 .318-.568c.093-.544-.325-1.047-.924-1.127Zm37.903 0-9.593-1.146-4.289-7.144a1.117 1.117 0 0 0-.547-.45c-.597-.243-1.323-.04-1.621.45l-4.289 7.144-9.593 1.146a1.315 1.315 0 0 0-.691.288.91.91 0 0 0-.343.708.92.92 0 0 0 .366.699l6.94 5.56-1.639 7.853a.825.825 0 0 0 .071.542c.084.172.226.32.409.43a1.433 1.433 0 0 0 1.273.075L121 21.29l8.58 3.707c.235.103.507.137.767.1.658-.093 1.1-.606.987-1.146l-1.64-7.852 6.94-5.561a.945.945 0 0 0 .352-.568c.102-.544-.359-1.047-1.02-1.127Zm32.194 0-7.795-1.146-3.484-7.144a.981.981 0 0 0-1.762 0l-3.484 7.144-7.795 1.146a.976.976 0 0 0-.561.288 1.003 1.003 0 0 0 .018 1.407l5.639 5.56-1.332 7.853a1.004 1.004 0 0 0 .39.972.973.973 0 0 0 1.034.074L156 21.29l6.972 3.707c.19.103.411.137.623.1a.991.991 0 0 0 .801-1.146l-1.332-7.852 5.639-5.561a.996.996 0 0 0 .286-.568.99.99 0 0 0-.829-1.127Z"/>
</svg>
